<svg width="24" height="24" viewBox="0 0 24 24" fill="none" xmlns="http://www.w3.org/2000/svg">
<path d="M12.1729 5.08496C12.9617 8.42816 15.5718 11.0383 18.915 11.8271L19.6465 12L18.915 12.1729C15.5718 12.9617 12.9617 15.5718 12.1729 18.915L12 19.6465L11.8271 18.915C11.0629 15.6764 8.58971 13.1255 5.39648 12.252L5.08496 12.1729L4.35254 12L5.08496 11.8271C8.32362 11.0629 10.8745 8.58971 11.748 5.39648L11.8271 5.08496L12 4.35254L12.1729 5.08496Z" stroke="#D9FF66" stroke-width="2"/>
<path d="M19.8037 0.831842C19.8526 0.624692 20.1474 0.624693 20.1963 0.831843L20.3056 1.2949C20.5863 2.4847 21.5153 3.41369 22.7051 3.69444L23.1682 3.80371C23.3753 3.85259 23.3753 4.14741 23.1682 4.19629L22.7051 4.30556C21.5153 4.58631 20.5863 5.5153 20.3056 6.7051L20.1963 7.16816C20.1474 7.37531 19.8526 7.37531 19.8037 7.16816L19.6944 6.7051C19.4137 5.5153 18.4847 4.58631 17.2949 4.30556L16.8318 4.19629C16.6247 4.14741 16.6247 3.85259 16.8318 3.80371L17.2949 3.69444C18.4847 3.41369 19.4137 2.4847 19.6944 1.2949L19.8037 0.831842Z" fill="#D9FF66"/>
</svg>
